<svg xmlns="http://www.w3.org/2000/svg" viewBox="0 0 96 96" role="img" aria-labelledby="title desc">
  <title id="title">Completed level node three stars</title>
  <desc id="desc">Completed SPCG level node with three stars.</desc>
  <defs>
    <linearGradient id="blue" x1="18" y1="10" x2="78" y2="86" gradientUnits="userSpaceOnUse">
      <stop offset="0" stop-color="#8fc8c0"/>
      <stop offset="1" stop-color="#426f78"/>
    </linearGradient>
    <filter id="shadow" x="-20%" y="-20%" width="140%" height="150%">
      <feDropShadow dx="0" dy="7" stdDeviation="5" flood-color="#244c52" flood-opacity="0.22"/>
    </filter>
  </defs>
  <circle cx="48" cy="48" r="34" fill="url(#blue)" filter="url(#shadow)"/>
  <path d="M31 48l11 11 23-26" fill="none" stroke="#fffaf0" stroke-width="9" stroke-linecap="round" stroke-linejoin="round"/>
  <path d="M28 66l3 6 7 1-5 5 1 7-6-3-6 3 1-7-5-5 7-1z" fill="#f2b552"/>
  <path d="M48 63l3 6 7 1-5 5 1 7-6-3-6 3 1-7-5-5 7-1z" fill="#f2b552"/>
  <path d="M68 66l3 6 7 1-5 5 1 7-6-3-6 3 1-7-5-5 7-1z" fill="#f2b552"/>
</svg>
