<svg xmlns="http://www.w3.org/2000/svg" viewBox="0 0 180 260" role="img" aria-labelledby="title desc">
  <title id="title">Current required node</title>
  <desc id="desc">Current progression problem node with cyan glow.</desc>
  <defs>
    <filter id="glow" x="-40%" y="-40%" width="180%" height="180%">
      <feGaussianBlur stdDeviation="7" result="blur"/>
      <feMerge><feMergeNode in="blur"/><feMergeNode in="SourceGraphic"/></feMerge>
    </filter>
    <linearGradient id="g" x1="0" x2="0" y1="0" y2="1">
      <stop offset="0" stop-color="#fff5d1"/>
      <stop offset="1" stop-color="#e0bd73"/>
    </linearGradient>
    <linearGradient id="cap" x1="0" x2="0" y1="0" y2="1">
      <stop offset="0" stop-color="#2cded2"/>
      <stop offset="1" stop-color="#08726f"/>
    </linearGradient>
  </defs>
  <path d="M90 8l66 28 12 164-78 52-78-52 12-164z" fill="#4cf3e7" opacity=".28" filter="url(#glow)"/>
  <path d="M90 8l66 28 12 164-78 52-78-52 12-164z" fill="url(#g)" stroke="#43ece2" stroke-width="7"/>
  <path d="M29 40h122l-8 18H37zM29 196h122l-17 24H46z" fill="#0a7672" opacity=".9"/>
  <circle cx="90" cy="52" r="37" fill="url(#cap)" stroke="#fff4b5" stroke-width="5"/>
  <circle cx="90" cy="190" r="30" fill="#0d817e" stroke="#62fff2" stroke-width="5"/>
  <path d="M90 166v48M66 190h48" stroke="#7dfff4" stroke-width="6" stroke-linecap="round"/>
</svg>
