<svg xmlns="http://www.w3.org/2000/svg" viewBox="0 0 96 96">
  <defs>
    <linearGradient id="b" x1="13" x2="84" y1="12" y2="87">
      <stop stop-color="#55d5ff"/>
      <stop offset=".48" stop-color="#1176dc"/>
      <stop offset="1" stop-color="#0d3c92"/>
    </linearGradient>
  </defs>
  <path fill="#f6d16b" d="M48 4l38 19v49L48 92 10 72V23L48 4z"/>
  <path fill="url(#b)" d="M48 13l29 15v38L48 82 19 66V28l29-15z"/>
  <path fill="#eaf8ff" d="M23 33c8-5 16-4 23 1v32c-7-5-15-6-23-1V33zm27 1c7-5 15-6 23-1v32c-8-5-16-4-23 1V34z"/>
  <path fill="none" stroke="#92c8ff" stroke-width="3" d="M48 32v36"/>
</svg>
