<svg xmlns="http://www.w3.org/2000/svg" viewBox="0 0 900 680">
  <defs>
    <radialGradient id="leaf" cx="50%" cy="35%" r="62%">
      <stop stop-color="#e7ff8f"/>
      <stop offset=".45" stop-color="#61c94c"/>
      <stop offset="1" stop-color="#157743"/>
    </radialGradient>
    <linearGradient id="wood" x1="365" x2="535" y1="205" y2="650" gradientUnits="userSpaceOnUse">
      <stop stop-color="#9b6a32"/>
      <stop offset=".5" stop-color="#704520"/>
      <stop offset="1" stop-color="#3f2718"/>
    </linearGradient>
    <filter id="soft" x="-20%" y="-20%" width="140%" height="140%">
      <feGaussianBlur in="SourceAlpha" stdDeviation="6"/>
      <feOffset dy="10"/>
      <feComposite in2="SourceAlpha" operator="out"/>
      <feColorMatrix values="0 0 0 0 0.08 0 0 0 0 0.22 0 0 0 0 0.09 0 0 0 .32 0"/>
      <feBlend in2="SourceGraphic"/>
    </filter>
  </defs>
  <g filter="url(#soft)">
    <ellipse cx="450" cy="175" rx="290" ry="148" fill="url(#leaf)"/>
    <ellipse cx="250" cy="245" rx="180" ry="116" fill="url(#leaf)"/>
    <ellipse cx="654" cy="248" rx="190" ry="120" fill="url(#leaf)"/>
    <ellipse cx="370" cy="305" rx="215" ry="122" fill="url(#leaf)"/>
    <ellipse cx="555" cy="312" rx="220" ry="126" fill="url(#leaf)"/>
    <ellipse cx="455" cy="405" rx="215" ry="108" fill="url(#leaf)"/>
  </g>
  <g fill="none" stroke="url(#wood)" stroke-linecap="round">
    <path stroke-width="72" d="M458 630c-8-115-5-228 0-352"/>
    <path stroke-width="40" d="M446 388c-76-67-153-116-256-147"/>
    <path stroke-width="38" d="M470 370c99-61 170-105 263-124"/>
    <path stroke-width="34" d="M442 470c-92-5-176-36-252-95"/>
    <path stroke-width="34" d="M475 470c99-10 181-45 251-96"/>
    <path stroke-width="30" d="M456 312c-42-54-52-96-46-153"/>
    <path stroke-width="28" d="M478 318c48-51 66-95 61-156"/>
  </g>
  <g fill="none" stroke="#c9964c" stroke-linecap="round" opacity=".55">
    <path stroke-width="8" d="M455 610c-18-75-15-151 0-227"/>
    <path stroke-width="7" d="M423 410c-57-49-116-84-196-109"/>
    <path stroke-width="7" d="M494 403c72-48 135-78 214-96"/>
    <path stroke-width="6" d="M430 500c-70-5-136-28-197-70"/>
    <path stroke-width="6" d="M491 501c73-11 138-36 194-76"/>
  </g>
  <g fill="#eaf46c" opacity=".9">
    <circle cx="303" cy="143" r="8"/>
    <circle cx="551" cy="112" r="7"/>
    <circle cx="688" cy="262" r="8"/>
    <circle cx="194" cy="285" r="7"/>
    <circle cx="590" cy="381" r="7"/>
    <circle cx="370" cy="365" r="6"/>
  </g>
</svg>
