<svg xmlns="http://www.w3.org/2000/svg" viewBox="0 0 120 180">
  <path fill="#4b2b16" opacity=".18" d="M21 166c17 9 61 9 78 0 8-4 2-11-39-11s-47 7-39 11z"/>
  <circle cx="60" cy="49" r="21" fill="#f1ae74"/>
  <path fill="#52351e" d="M39 46c6-18 35-20 43-3-17-4-28-4-43 3z"/>
  <path fill="#113c78" d="M33 73c9-12 46-13 55 0 12 24 12 55 9 87H23c-3-32-2-63 10-87z"/>
  <path fill="#e4b64e" d="M34 80h52v10H34zm-5 28h62v9H29zm18-33h10v85H47zm16 0h10v85H63z"/>
  <path fill="#dbeaff" d="M26 83l14-12 9 18-18 8zm68 0L80 71l-9 18 18 8z"/>
  <path fill="#2d4675" d="M18 158h32v10H18zm52 0h32v10H70z"/>
  <circle cx="52" cy="50" r="3" fill="#25201a"/>
  <circle cx="69" cy="50" r="3" fill="#25201a"/>
  <path fill="#102745" d="M39 29c9-12 36-12 44 0l-5 13H44l-5-13z"/>
  <path fill="#f0ca5a" d="M57 20h7v18h-7z"/>
</svg>
