<svg xmlns="http://www.w3.org/2000/svg" viewBox="0 0 960 540" role="img" aria-labelledby="title desc">
  <title id="title">ch1-02-example statement image</title>
  <desc id="desc">Candy bags with labels for a variable practice problem.</desc>
  <rect width="960" height="540" fill="#f4e1b1"/>
  <rect y="372" width="960" height="168" fill="#8abf7a"/>
  <g transform="translate(185 135)">
    <path d="M90 40 C55 82 42 142 50 214 C58 278 114 310 180 304 C246 298 296 262 304 208 C314 132 292 78 250 40 Z" fill="#d99b45" stroke="#825b34" stroke-width="8"/>
    <rect x="105" y="152" width="144" height="74" rx="14" fill="#fff8dc" stroke="#8a653e" stroke-width="6"/>
    <text x="177" y="200" text-anchor="middle" font-family="Arial, sans-serif" font-size="32" font-weight="700" fill="#2d261b">x</text>
  </g>
  <g transform="translate(500 155)">
    <path d="M88 32 C50 82 40 136 54 204 C68 270 122 304 186 292 C250 280 292 240 294 182 C296 114 266 70 240 32 Z" fill="#7aaed6" stroke="#4b6f88" stroke-width="8"/>
    <rect x="105" y="142" width="138" height="68" rx="14" fill="#fff8dc" stroke="#56738a" stroke-width="6"/>
    <text x="174" y="185" text-anchor="middle" font-family="Arial, sans-serif" font-size="30" font-weight="700" fill="#2d261b">print</text>
  </g>
</svg>
